<svg width="64" height="64" viewBox="0 0 64 64" fill="none" xmlns="http://www.w3.org/2000/svg">
<g clip-path="url(#clip0_2637_54116)">
<path d="M32.0001 18.2755C19.4134 18.2755 9.20898 14.7199 9.20898 10.0266V53.9733C9.20898 58.4888 19.2357 62.1511 31.6801 62.2222H32.0001C44.5868 62.2222 54.7912 58.6666 54.7912 53.9733V10.0266C54.7912 14.5777 44.5868 18.2755 32.0001 18.2755Z" fill="url(#paint0_linear_2637_54116)"/>
<path d="M54.7912 10.0267C54.7912 14.5778 44.5868 18.2756 32.0001 18.2756C19.4134 18.2756 9.20898 14.7201 9.20898 10.0267C9.20898 5.33339 19.4134 1.77783 32.0001 1.77783C44.5868 1.77783 54.7912 5.33339 54.7912 10.0267Z" fill="#E8E8E8"/>
<path d="M49.4579 9.35106C49.4579 12.2666 41.6357 14.6133 32.0002 14.6133C22.3646 14.6133 14.5068 12.2666 14.5068 9.38661C14.5068 6.50661 22.3291 4.12439 32.0002 4.12439C41.6713 4.12439 49.4579 6.47106 49.4579 9.35106Z" fill="#50E6FF"/>
<path d="M32 10.6666C27.2962 10.5497 22.6069 11.2351 18.1333 12.6933C22.6113 14.1236 27.3019 14.7731 32 14.6133C36.6947 14.7274 41.3738 14.0297 45.8311 12.5511C41.3564 11.1634 36.6828 10.5267 32 10.6666Z" fill="#198AB3"/>
<path d="M42.6665 32C42.6665 32.2845 42.6665 32.8534 42.6665 33.4934C42.5255 34.2334 42.4305 34.9815 42.3821 35.7334C42.3821 36.16 42.3821 36.8 42.5599 37.3689C42.7377 37.9378 42.5599 38.3289 42.5599 38.6489C42.5457 39.7298 42.2385 40.7866 41.671 41.7067C41.6642 41.7895 41.6642 41.8728 41.671 41.9556L42.0265 42.3822C43.6276 39.7281 44.8936 36.8856 45.7954 33.92C46.791 30.5422 46.8977 28.1245 46.1154 27.0934C44.9938 25.7157 43.4962 24.6934 41.8047 24.1506C40.1131 23.6078 38.3004 23.5678 36.5865 24.0356C37.7944 24.6371 38.889 25.4431 39.8221 26.4178C40.6428 27.113 41.317 27.9646 41.8054 28.923C42.2937 29.8814 42.5865 30.9274 42.6665 32ZM41.5643 32.2845C40.6198 32.0538 39.6239 32.1672 38.7554 32.6045C37.7243 33.2445 38.0443 34.56 38.7554 36.16C39.1102 37.1911 39.5258 38.2003 39.9999 39.1822L40.3199 39.7511C40.4977 40.0356 40.6043 40.2845 40.711 40.4622L40.9954 40.9245C41.4115 40.2252 41.6325 39.4271 41.6354 38.6134C41.658 38.2226 41.658 37.8308 41.6354 37.44C41.6354 36.8356 41.6354 36.16 41.4577 35.6978C41.5058 34.8753 41.6008 34.0562 41.7421 33.2445C41.6354 32.8534 41.671 32.4622 41.7065 32.1778L41.5643 32.2845ZM40.4977 33.7422C40.319 33.9146 40.0984 34.0372 39.8577 34.0978C39.6936 34.1334 39.5239 34.1334 39.3599 34.0978C39.2696 34.0116 39.2002 33.906 39.1571 33.7889C39.1139 33.6718 39.0982 33.5464 39.111 33.4222C39.111 33.1734 39.5021 32.96 39.9643 32.8889H40.6399C40.6399 32.8889 40.9599 32.8889 40.9599 33.1734C40.9408 33.2681 40.9025 33.358 40.8475 33.4374C40.7925 33.5169 40.7218 33.5843 40.6399 33.6356L40.4977 33.7422ZM23.8221 36.9067C23.8221 36.6578 23.8221 36.4445 23.8221 36.3022C23.8393 36.1011 23.8393 35.8989 23.8221 35.6978C23.7151 34.515 23.7151 33.325 23.8221 32.1422C24.0338 30.8035 24.3915 29.492 24.8888 28.2311C25.3082 26.9724 26.0141 25.8283 26.951 24.8889C25.3932 24.4235 23.7768 24.184 22.151 24.1778C20.768 24.1175 19.4008 24.4904 18.2399 25.2445C17.352 26.0474 16.6812 27.0614 16.2896 28.1926C15.8981 29.3238 15.7984 30.5356 15.9999 31.7156C16.3423 34.4201 16.9375 37.0866 17.7777 39.68C18.9865 43.7334 20.3732 46.2222 21.5821 46.6134C22.1154 46.7911 22.6843 46.6134 23.2532 45.8667C24.2488 44.6578 25.1732 43.6267 25.7065 43.0222C24.9139 42.2169 24.3383 41.2238 24.0337 40.1356C23.729 39.0475 23.7051 37.8999 23.9643 36.8L23.8221 36.9067ZM24.7465 38.3289C24.7313 38.999 24.803 39.6683 24.9599 40.32C25.1763 40.8905 25.4889 41.4197 25.8843 41.8845C26.2347 42.2619 26.6581 42.5643 27.1288 42.7734C27.5696 42.9525 28.0397 43.0489 28.5154 43.0578C28.5154 42.4534 29.0132 41.7067 29.3332 40.9245C29.6322 40.2441 29.8817 39.543 30.0799 38.8267C30.1905 37.5135 30.1905 36.1933 30.0799 34.88C30.0799 34.56 30.0799 34.2045 29.8665 33.8134C29.8364 33.4545 29.6861 33.1162 29.4399 32.8534C29.1602 32.5843 28.8181 32.3889 28.4443 32.2845H27.7332C27.1413 32.3576 26.565 32.5256 26.0265 32.7822C25.6271 32.9716 25.2462 33.1977 24.8888 33.4578V33.8489C24.8888 34.56 24.8888 35.3067 24.8888 36.0178C24.9043 36.1952 24.9043 36.3737 24.8888 36.5511V37.9378L24.7465 38.3289ZM27.0932 33.5645C27.417 33.461 27.765 33.461 28.0888 33.5645C28.3243 33.5974 28.5526 33.6695 28.7643 33.7778C29.0843 33.7778 29.1199 34.1689 29.0843 34.2756C28.9816 34.4619 28.8352 34.6205 28.6577 34.7378C28.5811 34.6991 28.5095 34.6514 28.4443 34.5956C28.1952 34.5544 27.9652 34.4362 27.7867 34.2577C27.6081 34.0791 27.4899 33.8492 27.4488 33.6L27.0932 33.5645ZM29.7243 44.2311C29.5515 44.2513 29.3895 44.326 29.2621 44.4445L28.7643 45.0489C28.1599 45.7956 27.911 46.0445 26.1688 46.4C25.834 46.4323 25.5144 46.5552 25.2443 46.7556C25.4949 46.9498 25.7869 47.0837 26.0977 47.1467C26.9302 47.4134 27.8252 47.4134 28.6577 47.1467C29.1603 46.904 29.627 46.5929 30.0443 46.2222C30.3894 45.937 30.6378 45.552 30.7554 45.12C30.7705 44.9383 30.7466 44.7555 30.6852 44.5838C30.6239 44.4121 30.5266 44.2555 30.3999 44.1245C30.3253 44.0664 30.2366 44.0292 30.1428 44.0167C30.0491 44.0042 29.9538 44.0169 29.8665 44.0534L29.7243 44.2311ZM46.1154 44.2311C44.819 44.7102 43.3941 44.7102 42.0977 44.2311C41.9362 44.1769 41.7614 44.1769 41.5999 44.2311C41.3426 44.3144 41.1265 44.4924 40.9954 44.7289C40.9429 45.0944 40.9429 45.4656 40.9954 45.8311C42.3042 46.1254 43.6723 46.001 44.9065 45.4756C45.5568 45.2019 46.1393 44.7893 46.6132 44.2667L46.1154 44.2311ZM37.5821 36.6222C37.0843 35.1645 36.3732 33.0667 38.2221 31.7867C39.1845 31.2511 40.3018 31.0628 41.3865 31.2534C40.9215 29.7466 40.1463 28.3538 39.111 27.1645L38.7554 26.8089L38.5421 26.5956C38.4802 26.5158 38.4085 26.4442 38.3288 26.3822C37.6252 25.7529 36.8196 25.2479 35.9465 24.8889C34.7033 24.3449 33.3566 24.078 31.9999 24.1067C31.151 24.0392 30.2982 24.1732 29.511 24.4978C29.1444 24.5957 28.7874 24.7266 28.4443 24.8889C27.2283 25.7812 26.311 27.0207 25.8132 28.4445C25.4609 29.6056 25.2111 30.7953 25.0665 32C26.1356 31.3588 27.3803 31.0725 28.6221 31.1822C29.0148 31.2136 29.3974 31.3223 29.7479 31.5022C30.0985 31.6821 30.4099 31.9295 30.6644 32.2302C30.9189 32.531 31.1113 32.8791 31.2307 33.2545C31.3501 33.63 31.394 34.0253 31.3599 34.4178C31.4918 35.9201 31.4918 37.4311 31.3599 38.9334C31.1526 39.7023 30.879 40.4518 30.5421 41.1734C30.3288 41.7778 30.0443 42.4178 29.9021 42.9156C30.1496 42.8997 30.3976 42.9358 30.6303 43.0216C30.863 43.1073 31.0752 43.2407 31.2532 43.4134C31.4978 43.6582 31.6852 43.9541 31.802 44.2799C31.9188 44.6057 31.9621 44.9533 31.9288 45.2978H31.9999C31.9999 45.5822 31.9999 45.8667 31.9999 46.1511C31.7357 49.0709 32.0252 52.0143 32.8532 54.8267C33.056 55.1558 33.3534 55.416 33.7065 55.5734C34.0341 55.7912 34.4156 55.9143 34.8088 55.9289C35.453 55.9874 36.1024 55.9101 36.7148 55.7018C37.3273 55.4936 37.8893 55.1591 38.3643 54.72C38.9742 54.084 39.3394 53.2528 39.3954 52.3734C39.6443 50.7734 40.1777 46.3289 40.2488 45.2622C40.1859 44.72 40.298 44.1718 40.5688 43.6978C40.7986 43.3257 41.1323 43.0291 41.5288 42.8445C39.8482 40.9715 38.5551 38.7842 37.7243 36.4089L37.5821 36.6222Z" fill="#F2F2F2"/>
</g>
<defs>
<linearGradient id="paint0_linear_2637_54116" x1="9.18005" y1="36.1584" x2="54.7978" y2="36.1505" gradientUnits="userSpaceOnUse">
<stop stop-color="#005BA1"/>
<stop offset="0.07" stop-color="#0060A9"/>
<stop offset="0.36" stop-color="#0071C8"/>
<stop offset="0.52" stop-color="#0078D4"/>
<stop offset="0.64" stop-color="#0074CD"/>
<stop offset="0.82" stop-color="#006ABB"/>
<stop offset="1" stop-color="#005BA1"/>
</linearGradient>
<clipPath id="clip0_2637_54116">
<rect width="64" height="64" fill="white"/>
</clipPath>
</defs>
</svg>
