<svg width="64" height="64" viewBox="0 0 64 64" fill="none" xmlns="http://www.w3.org/2000/svg">
<path d="M62.9133 38.3436C62.7203 37.7819 62.3724 37.2861 61.9097 36.9136C61.447 36.5411 60.8884 36.3071 60.2984 36.2384C59.6013 36.1546 58.8949 36.1941 58.2115 36.355C57.1545 36.5885 56.0792 36.73 54.9977 36.7779C57.8897 31.8987 60.0986 26.6458 61.5624 21.1661C63.7408 12.7339 62.5773 8.89385 61.2173 7.15438C59.4112 4.86942 57.0997 3.03451 54.4646 1.79389C51.8295 0.553271 48.9425 -0.0592376 46.0307 0.00451225C43.3594 -0.0205144 40.6993 0.352344 38.1379 1.11082C36.6123 0.849262 35.0684 0.708631 33.5207 0.690241C30.7074 0.583429 27.9208 1.27017 25.4794 2.672C23.6278 2.04597 21.7291 1.56901 19.8015 1.24568C17.5544 0.706616 15.2231 0.615684 12.9409 0.978081C10.6587 1.34048 8.47022 2.1491 6.50065 3.35773C2.53714 6.1555 0.699383 11.0196 1.03996 17.8152C1.64976 22.8848 2.72557 27.8874 4.25375 32.7595C5.13385 35.8028 6.29229 38.7586 7.71439 41.5894C8.76465 44.1718 10.7612 46.2559 13.2962 47.4158C14.2255 47.722 15.2197 47.7741 16.1758 47.5667C17.1319 47.3593 18.0152 46.9 18.7341 46.2364C19.0603 46.6227 19.4461 46.9545 19.8769 47.2193C20.5447 47.6337 21.2725 47.9421 22.0347 48.1336C24.5295 48.8284 27.1851 48.6675 29.5777 47.6764C29.5914 48.0673 29.6029 48.4421 29.6097 48.7667C29.6234 49.2902 29.6394 49.8045 29.6577 50.2868C29.6306 52.8364 29.9701 55.3767 30.6658 57.8298C30.7023 57.9281 30.7503 58.0744 30.8006 58.2321C31.2021 59.7335 31.982 61.1068 33.0658 62.2207C34.3652 63.4139 36.0798 64.0513 37.8431 63.9968C38.5941 63.992 39.3426 63.9085 40.0762 63.7476C41.467 63.573 42.8087 63.1216 44.0221 62.4201C45.2356 61.7185 46.2963 60.7811 47.1415 59.663C48.9953 57.0229 49.8982 53.048 50.0605 46.7827C50.081 46.6044 50.1016 46.4352 50.1199 46.2752L50.1587 45.9438L50.5953 45.9827H50.7073C53.1792 46.0874 55.6447 45.6602 57.9372 44.7301C59.3795 44.0603 64.0036 41.6191 62.9133 38.3299" fill="black"/>
<path d="M58.7583 38.9882C51.5285 40.4786 51.0325 38.0328 51.0325 38.0328C58.6646 26.7068 61.8556 12.3294 59.1012 8.81158C51.5902 -0.788627 38.5865 3.75319 38.3693 3.86976L38.2985 3.88347C36.7102 3.56471 35.0954 3.39634 33.4755 3.38061C30.7437 3.24354 28.048 4.05064 25.8411 5.66637C25.8411 5.66637 2.64512 -3.89041 3.724 17.6849C3.95258 22.2747 10.3024 52.4148 17.8752 43.3106C20.6432 39.9825 23.3176 37.1665 23.3176 37.1665C24.6645 38.0756 26.285 38.4892 27.9028 38.3368L28.0331 38.2271C27.9949 38.6595 28.0125 39.0952 28.0857 39.5231C26.1336 41.7037 26.7142 42.0854 22.8078 42.8878C18.8626 43.7015 21.1804 45.1484 22.6936 45.5278C24.3013 46.0479 26.0322 46.0468 27.6392 45.5246C29.2463 45.0025 30.6473 43.986 31.6423 42.6203L31.528 43.0775C32.2915 43.6901 32.8286 47.0593 32.7395 50.1153C32.4902 52.3883 32.6449 54.6874 33.1966 56.9063C33.8001 58.5452 34.399 62.2299 39.5259 61.1327C41.3491 60.9526 43.0448 60.1165 44.2977 58.7799C45.5506 57.4434 46.2755 55.6972 46.3375 53.8663C46.5661 51.0456 47.0529 51.4617 47.0827 48.9405L47.4804 47.7473C47.9375 43.9232 47.5535 42.6889 50.1913 43.2626L50.8336 43.3198C52.8744 43.4055 54.9105 43.0629 56.8109 42.314C60.0247 40.8237 61.9287 38.3322 58.7606 38.9882" fill="#336791"/>
<path d="M27.1989 19.7374C26.6745 19.6271 26.128 19.7082 25.6583 19.966C25.5971 20.0101 25.5453 20.0659 25.506 20.1303C25.4668 20.1947 25.4408 20.2663 25.4297 20.3409C25.4297 20.6045 25.5247 20.8593 25.6971 21.0586C26.0038 21.4798 26.4618 21.7657 26.9749 21.8563C27.043 21.8658 27.1118 21.8703 27.1806 21.87C27.5202 21.8745 27.8529 21.7744 28.1338 21.5835C28.4146 21.3926 28.6301 21.12 28.7509 20.8026C28.8309 20.2357 28.0057 19.8563 27.2057 19.7443M48.7879 19.7626C48.7262 19.3169 47.933 19.1911 47.1879 19.3054C46.4427 19.4197 45.709 19.7489 45.7707 20.1946C45.8869 20.4742 46.0838 20.7129 46.3362 20.8802C46.5886 21.0475 46.8851 21.1359 47.1879 21.134C47.2514 21.1339 47.3148 21.1293 47.3776 21.1203C47.774 21.0507 48.1363 20.8522 48.4085 20.5557C48.636 20.3559 48.775 20.0739 48.7948 19.7717" fill="white"/>
<path d="M61.1589 38.8126C60.8823 37.9782 59.9954 37.7108 58.5211 38.0148C54.1439 38.9291 52.5781 38.2914 52.0615 37.9142C55.5278 32.5932 58.13 26.7571 59.7714 20.6224C60.4358 18.1958 60.8193 15.701 60.9143 13.1869C61.0905 11.4283 60.6815 9.66068 59.7509 8.15817C58.1034 6.08485 55.9971 4.42242 53.5977 3.30187C51.1983 2.18132 48.5715 1.63327 45.9243 1.70089C43.205 1.65834 40.4987 2.08438 37.9241 2.96035C36.4515 2.597 34.9423 2.40297 33.4257 2.38205C30.6972 2.26216 28.0003 3.00517 25.7181 4.50552C23.6867 3.7628 21.5897 3.21331 19.4551 2.86434C15.3746 1.87687 11.0693 2.53803 7.47315 4.70438C4.0445 7.13644 2.44446 11.484 2.76219 17.6258C3.3626 22.5482 4.41311 27.4053 5.90054 32.1358C8.34631 40.1474 11.0047 44.6847 13.8024 45.6218C14.1641 45.7437 14.5431 45.8062 14.9247 45.807C15.635 45.763 16.3258 45.5578 16.9449 45.2069C17.5639 44.8559 18.0949 44.3686 18.4974 43.7818C20.0852 41.877 21.7272 40.0194 23.4232 38.2091C24.5135 38.7992 25.7269 39.1256 26.9661 39.1623V39.2583C26.7528 39.5112 26.5448 39.7688 26.3421 40.0309C25.485 41.1166 25.309 41.3429 22.5523 41.912C21.7683 42.0743 19.686 42.5041 19.6563 43.9692C19.6243 45.5693 22.118 46.2344 22.3992 46.3053C23.3321 46.5452 24.2909 46.6696 25.2541 46.6756C27.3607 46.7145 29.4034 45.9513 30.9685 44.5407C30.7348 48.8907 31.0272 53.253 31.8394 57.533C32.2147 58.9031 33.027 60.1134 34.1528 60.9798C35.2787 61.8461 36.6566 62.3213 38.0772 62.3331C38.782 62.3309 39.4846 62.2543 40.1733 62.1045C42.0537 61.9421 43.8142 61.1129 45.137 59.7667C46.4598 58.4204 47.2579 56.6456 47.3872 54.7626C47.7917 52.4174 48.4866 46.8196 48.8135 43.8161C49.6395 44.0431 50.4942 44.1486 51.3507 44.1292C53.3232 44.1435 55.2794 43.7707 57.1085 43.0321C58.736 42.2755 61.68 40.424 61.1383 38.8126H61.1589ZM50.4387 18.5173C50.4094 19.3659 50.3208 20.2114 50.1735 21.0476C50.0036 22.0303 49.8967 23.0228 49.8535 24.0191C49.8458 25.1432 49.9222 26.2664 50.0821 27.3792C50.5758 29.6567 50.3939 32.0288 49.5586 34.2045C49.3812 33.8898 49.2232 33.5646 49.0855 33.2307C48.9529 32.9084 48.6626 32.3896 48.2649 31.6741C46.7106 28.8855 43.0671 22.3528 44.9322 19.6876C45.4877 18.8944 46.898 18.0875 50.4364 18.5173H50.4387ZM46.1483 3.50207C48.488 3.45424 50.8069 3.94997 52.9225 4.95028C55.0381 5.95058 56.8928 7.42816 58.3405 9.26677C60.5692 12.1125 58.112 25.066 51.0147 36.2388L50.7998 35.9668L50.7107 35.8548C52.1207 33.1904 52.5309 30.1094 51.8673 27.1689C51.7144 26.1459 51.638 25.1129 51.6387 24.0785C51.6801 23.1542 51.7801 22.2335 51.9381 21.3219C52.1438 20.1963 52.2379 19.0533 52.2193 17.9092C52.2565 17.7521 52.2665 17.5898 52.249 17.4292C51.4916 14.3684 49.9904 11.5419 47.8786 9.20048C45.981 6.96443 43.6077 5.18072 40.9322 3.9798C42.6456 3.62251 44.3937 3.45844 46.1437 3.49064L46.1483 3.50207ZM17.1305 42.6412C15.6973 44.3647 14.7053 44.0355 14.3876 43.9258C12.2664 43.2172 9.80234 38.7326 7.63315 31.6193C6.19284 27.0277 5.16775 22.3161 4.57022 17.5412C4.29593 12.0554 5.62625 8.22903 8.5246 6.17184C13.2401 2.82777 20.9957 4.8301 24.1112 5.84498C24.0655 5.88841 24.0198 5.92955 23.9764 5.97527C18.8631 11.1388 18.9843 19.9619 18.998 20.5013C18.998 20.7093 19.014 21.0042 19.0391 21.4156C19.2265 23.8735 19.1645 26.3441 18.854 28.7895C18.6415 30.1897 18.7506 31.6199 19.1732 32.9716C19.5958 34.3233 20.3207 35.561 21.2929 36.5908C21.4955 36.8011 21.7074 37.0007 21.9283 37.1897C21.0529 38.1268 19.1488 40.2023 17.1282 42.6412H17.1305ZM22.5935 35.3496C21.8052 34.5162 21.2174 33.514 20.8748 32.4192C20.5321 31.3244 20.4437 30.1659 20.6163 29.0318C20.9439 26.4691 21.0106 23.8798 20.8151 21.3036C20.8014 21.0865 20.79 20.8967 20.7831 20.7482C22.6979 19.3051 25.0741 18.6116 27.4644 18.7984C28.0144 18.923 28.5119 19.2158 28.8879 19.6361C29.264 20.0563 29.4998 20.5832 29.5628 21.1436C31.0394 27.9757 29.7571 30.8215 28.7285 33.1096C28.5159 33.5804 28.3147 34.0239 28.1456 34.481L28.013 34.8376C27.6845 35.6658 27.4037 36.5122 27.1719 37.3725C26.3125 37.3603 25.4645 37.1744 24.6789 36.826C23.8933 36.4775 23.1862 35.9738 22.6003 35.3451L22.5935 35.3496ZM22.8518 44.5612C22.4277 44.4569 22.0237 44.2831 21.6563 44.047C22.0649 43.8724 22.492 43.7451 22.9295 43.6675C26.1707 43.0001 26.6713 42.5246 27.7662 41.1417C28.0176 40.824 28.301 40.456 28.6942 40.024C29.2793 39.368 29.5491 39.48 30.0336 39.6811C30.2635 39.806 30.465 39.977 30.6255 40.1836C30.786 40.3901 30.902 40.6276 30.9662 40.8812C31.0301 41.0653 31.053 41.2611 31.0332 41.455C31.0135 41.6488 30.9516 41.836 30.8519 42.0035C29.9658 43.227 28.7119 44.1354 27.2731 44.5959C25.8343 45.0565 24.2859 45.0451 22.854 44.5635L22.8518 44.5612ZM39.8213 60.3467C39.1798 60.5698 38.4985 60.655 37.8218 60.5969C37.1452 60.5387 36.4884 60.3386 35.8943 60.0094C35.3003 59.6802 34.7823 59.2295 34.3743 58.6866C33.9662 58.1437 33.6773 57.5208 33.5263 56.8587C32.7213 51.6784 32.4914 46.4251 32.8406 41.1943C32.8429 41.0984 32.8297 41.0027 32.8017 40.9109C32.7777 40.7332 32.7411 40.5576 32.692 40.3852C32.5566 39.871 32.3099 39.3928 31.9695 38.9845C31.629 38.5761 31.203 38.2474 30.7216 38.0217C30.1605 37.7434 29.5217 37.6629 28.909 37.7931C29.1256 37.0004 29.3866 36.2205 29.6908 35.4571L29.8233 35.0982C29.9742 34.6936 30.1616 34.2753 30.3605 33.8319C31.4371 31.4387 32.9137 28.1586 31.3114 20.7527C31.21 20.1228 30.9806 19.5203 30.6374 18.9823C30.2942 18.4444 29.8445 17.9825 29.3159 17.6251C28.7874 17.2676 28.1912 17.0222 27.5642 16.904C26.9371 16.7858 26.2925 16.7973 25.6701 16.9378C24.1646 17.1331 22.7048 17.5903 21.3569 18.2887C21.1786 18.3801 21.014 18.467 20.8632 18.5515C21.036 14.3982 22.5774 10.4186 25.2472 7.23244C26.3196 6.183 27.5994 5.36925 29.0047 4.84337C30.4099 4.31748 31.9096 4.09107 33.4074 4.17866C35.9379 4.20063 38.4327 4.77758 40.7159 5.86881C42.999 6.96004 45.015 8.53898 46.6214 10.4942C48.1892 12.325 49.4142 14.4233 50.2375 16.6886C46.8934 16.3481 44.6191 17.0087 43.4671 18.6567C40.9527 22.2408 44.8385 29.1986 46.7037 32.5427C47.0466 33.1553 47.3414 33.6856 47.4329 33.9142C47.9254 35.0641 48.5889 36.1329 49.4009 37.0845C49.5769 37.3131 49.7483 37.5165 49.8764 37.704C48.8638 37.9965 47.0443 38.6708 47.2112 42.0469C47.0786 43.7384 46.1277 51.6585 45.6431 54.4586C45.0054 58.1547 43.6454 59.533 39.819 60.3536L39.8213 60.3467ZM56.3748 41.4023C54.9676 41.9606 53.4741 42.27 51.961 42.3166C50.9542 42.4649 49.9261 42.3328 48.9895 41.9349C48.8866 39.8343 49.6752 39.6149 50.4981 39.3817C50.6284 39.3451 50.7541 39.3086 50.8775 39.2674C50.9582 39.3326 51.0421 39.3936 51.129 39.4503C52.5896 40.4149 55.1976 40.5177 58.8777 39.7589H58.9188C58.1581 40.4352 57.2977 40.9903 56.3679 41.4046L56.3748 41.4023Z" fill="white"/>
</svg>
