<svg width="22" height="22" viewBox="0 0 22 22" fill="none" xmlns="http://www.w3.org/2000/svg">
<rect x="0.5" y="0.5" width="21" height="21" rx="2.5" fill="#131313"/>
<rect x="0.5" y="0.5" width="21" height="21" rx="2.5" stroke="#0A0A0A"/>
<g clip-path="url(#clip0_2635_239075)">
<path d="M12 16C12 14.9391 12.4214 13.9217 13.1716 13.1716C13.9217 12.4214 14.9391 12 16 12V3H6V19H13.382C12.95 18.6283 12.603 18.168 12.3646 17.6504C12.1261 17.1328 12.0018 16.5699 12 16Z" fill="#CCCCCC"/>
<path d="M13 7H9V6H13V7ZM13 8H9V9H13V8Z" fill="#CCCCCC"/>
<path d="M16 19C17.6569 19 19 17.6569 19 16C19 14.3431 17.6569 13 16 13C14.3431 13 13 14.3431 13 16C13 17.6569 14.3431 19 16 19Z" fill="#3BB44A"/>
<path d="M16 19C17.6569 19 19 17.6569 19 16C19 14.3431 17.6569 13 16 13C14.3431 13 13 14.3431 13 16C13 17.6569 14.3431 19 16 19Z" fill="#327E36"/>
<path d="M12 16C12.0033 15.1158 12.2995 14.2576 12.8423 13.5596C13.3851 12.8615 14.1439 12.363 15 12.142V4H7V18H12.556C12.1961 17.3947 12.0041 16.7043 12 16ZM9 6H13V7H9V6ZM9 8H13V9H9V8Z" fill="#424242"/>
</g>
<defs>
<clipPath id="clip0_2635_239075">
<rect width="16" height="16" fill="white" transform="translate(3 3)"/>
</clipPath>
</defs>
</svg>
