<?xml version="1.0" encoding="UTF-8" standalone="no"?>
<!-- Created with Inkscape (http://www.inkscape.org/) -->

<svg
   width="217.46848"
   height="264.48395"
   viewBox="0 0 57.538535 69.978045"
   version="1.1"
   id="svg1"
   xml:space="preserve"
   inkscape:version="1.4 (86a8ad7, 2024-10-11)"
   sodipodi:docname="pg-icon.svg"
   inkscape:export-filename="..\..\git\vs-code-postgresql\media\extension-icon.png"
   inkscape:export-xdpi="91.022224"
   inkscape:export-ydpi="91.022224"
   xmlns:inkscape="http://www.inkscape.org/namespaces/inkscape"
   xmlns:sodipodi="http://sodipodi.sourceforge.net/DTD/sodipodi-0.dtd"
   xmlns="http://www.w3.org/2000/svg"
   xmlns:svg="http://www.w3.org/2000/svg"><sodipodi:namedview
     id="namedview1"
     pagecolor="#ffffff"
     bordercolor="#000000"
     borderopacity="0.25"
     inkscape:showpageshadow="2"
     inkscape:pageopacity="0.0"
     inkscape:pagecheckerboard="0"
     inkscape:deskcolor="#d1d1d1"
     inkscape:document-units="px"
     inkscape:zoom="3.6598107"
     inkscape:cx="84.840454"
     inkscape:cy="153.96971"
     inkscape:window-width="3840"
     inkscape:window-height="2054"
     inkscape:window-x="2149"
     inkscape:window-y="687"
     inkscape:window-maximized="1"
     inkscape:current-layer="g1"
     showguides="true"><sodipodi:guide
       position="28.769204,34.989015"
       orientation="-1,0"
       id="guide10"
       inkscape:locked="false"
       inkscape:label=""
       inkscape:color="rgb(0,134,229)" /><sodipodi:guide
       position="28.769204,34.989015"
       orientation="0,1"
       id="guide11"
       inkscape:locked="false"
       inkscape:label=""
       inkscape:color="rgb(0,134,229)" /><inkscape:page
       x="0"
       y="0"
       width="57.538536"
       height="69.978043"
       id="page2"
       margin="0"
       bleed="0" /></sodipodi:namedview><defs
     id="defs1"><style
       id="style1">
      .st0 {
        fill: #231f20;
      }
    </style></defs><g
     inkscape:label="Layer 1"
     inkscape:groupmode="layer"
     id="layer1"
     transform="translate(-19.046342,0.97464672)"><g
       id="g1"
       transform="matrix(0.26458333,0,0,0.26458333,25.801876,-62.771516)"
       inkscape:export-filename="..\..\git\vs-code-postgresql\media\draft-pg-icon-2.svg"
       inkscape:export-xdpi="96"
       inkscape:export-ydpi="96"><g
         id="g2"
         transform="matrix(1.2708072,0.17365906,-0.26377574,0.98595561,-79.618324,-11.883695)"
         inkscape:export-filename="draft-pg-icon-2.svg"
         inkscape:export-xdpi="96"
         inkscape:export-ydpi="96"
         style="fill:#0080ff;fill-opacity:1;stroke:none;stroke-width:1.65822;stroke-dasharray:none;stroke-opacity:1"><path
           class="st0"
           d="m 259.44021,338.51765 c -0.9,-1.1 -1.7,-2.1 -2.4,-3 -1.5,-17.5 -3.7,-32 -6.1,-43.9 l 23.9,41.1 c -2.8,1.3 -7.8,3.4 -15.3,5.7 v 0 z"
           id="path3"
           style="fill:#0080ff;fill-opacity:1;stroke:none;stroke-width:1.65822;stroke-dasharray:none;stroke-opacity:1" /><path
           class="st0"
           d="m 258.44021,359.81765 c -0.2,-4.8 -0.4,-9.5 -0.7,-14 7,6.7 20.6,21.6 33.6,28.3 -8.2,-1.6 -21.6,-7 -32.9,-14.3 z"
           id="path5"
           style="fill:#0080ff;fill-opacity:1;stroke:none;stroke-width:1.65822;stroke-dasharray:none;stroke-opacity:1" /><path
           class="st0"
           d="m 132.84021,232.31765 22.3,-10.7 c 6.2,0.7 44.4,5.1 69.8,15.1 2.2,3.3 11.6,18.7 18.8,51.3 7.5,33.8 14.1,93.3 3.1,185.7 h -13.8 c 0.3,-6.2 0.5,-20.5 -2.5,-43.6 -1,-8 -2.5,-17.4 -4.7,-28.4 3.9,2.9 8.2,5.7 12.8,8.2 l 3.4,1.9 0.3,-7.8 -1.1,-0.7 c -10.1,-6.6 -18.2,-23.5 -23.1,-36.1 -5.8,-22.7 -13.9,-49.3 -25.2,-79.8 l -0.2,-0.5 -0.3,-0.4 c -1.5,-1.8 -5.6,-4.5 -10.8,-1.1 -1.3917,1.301 -2.4,3.5 -2.4,5.6 0,3.8 4.13661,6.35639 6.9,6.9 2.26402,0.44538 2.66103,-0.0127 3.5,-1 6.5,18.1 11.9,34.8 16.3,49.9 l -32.1,-15.2 c -7.2,-25 -9,-56.7 -9.4,-68 0,-2.6 -0.1,-4.2 -0.1,-4.3 h -6.3 c 0,2.6 0.9,58.1 15.4,89.5 -6.8,-0.9 -16.50885,-6.80338 -31.9264,-14.83123 -18.77272,-14.82573 -21.43167,-14.15987 -39.23167,-46.25987 1.4,-4.1 10.71696,-33.07175 28.61336,-53.82623 l 1.06375,-1.04571 z"
           id="path8"
           sodipodi:nodetypes="cccccccccccccccccsscccccccccscc"
           style="fill:#0080ff;fill-opacity:1;stroke:none;stroke-width:1.65822;stroke-dasharray:none;stroke-opacity:1" /><path
           class="st0"
           d="m 188.64021,345.61765 19.8,8.5 c 1.6,5.5 9.1,29.5 20.9,44.4 -25.7,-18.6 -36.9,-42.8 -40.7,-53 v 0 z"
           id="path9"
           style="fill:#0080ff;fill-opacity:1;stroke:none;stroke-width:1.65822;stroke-dasharray:none;stroke-opacity:1" /></g></g></g></svg>
