<?xml version="1.0" encoding="UTF-8" standalone="no"?>
<svg
   id="b1cfe86c-f00b-4507-bce2-50d07e45fe96"
   width="18"
   height="18"
   viewBox="0 0 18 18"
   version="1.1"
   sodipodi:docname="pgsqlServerConnect_dark.svg"
   inkscape:version="1.4 (86a8ad7, 2024-10-11)"
   xmlns:inkscape="http://www.inkscape.org/namespaces/inkscape"
   xmlns:sodipodi="http://sodipodi.sourceforge.net/DTD/sodipodi-0.dtd"
   xmlns="http://www.w3.org/2000/svg"
   xmlns:svg="http://www.w3.org/2000/svg"
   xmlns:rdf="http://www.w3.org/1999/02/22-rdf-syntax-ns#"
   xmlns:cc="http://creativecommons.org/ns#"
   xmlns:dc="http://purl.org/dc/elements/1.1/">
  <defs
     id="defs5" />
  <sodipodi:namedview
     id="namedview5"
     pagecolor="#ff1cfa"
     bordercolor="#000000"
     borderopacity="0.25"
     inkscape:showpageshadow="2"
     inkscape:pageopacity="0.0"
     inkscape:pagecheckerboard="0"
     inkscape:deskcolor="#d1d1d1"
     showgrid="false"
     inkscape:zoom="44.833333"
     inkscape:cx="12.513011"
     inkscape:cy="9.1784387"
     inkscape:window-width="2160"
     inkscape:window-height="3734"
     inkscape:window-x="-11"
     inkscape:window-y="-11"
     inkscape:window-maximized="1"
     inkscape:current-layer="b1cfe86c-f00b-4507-bce2-50d07e45fe96" />
  <title
     id="title1">Icon-databases-132</title>
  <path
     d="   M6.84,   5.09c-3.5,   0-6.34-1-6.34-2.3V15c0,   1.26,   2.79,   2.28,   6.25,   2.3h.09c3.5,   0,   6.34-1,   6.34-2.3V2.79C13.18,   4.06,   10.34,   5.09,   6.84,   5.09Z   "
     fill="#0000"
     stroke="#000"
     stroke-width="0.2px"
     id="path1"
     style="fill:none;stroke:#ffffff;stroke-opacity:1" />
  <path
     d="M13.18,2.79c0,1.27-2.84,2.3-6.34,2.3S.5,4.06.5,2.79,3.34.49,6.84.49s6.34,1,6.34,2.3"
     fill="#0000"
     stroke="#000"
     stroke-width="0.4px"
     id="path2"
     style="fill:none;stroke:#ffffff;stroke-opacity:1" />
  <path
     d="M11.7,2.6c0,.81-2.18,1.46-4.86,1.46S2,3.41,2,2.6,4.16,1.14,6.84,1.14,11.7,1.8,11.7,2.6"
     fill="#0000"
     stroke="#000"
     stroke-width="0.4px"
     id="path3"
     style="fill:none;stroke:#ffffff;stroke-opacity:1" />
  <path
     style="fill:#ffffff;fill-opacity:0;fill-rule:nonzero;stroke:#ffffff;stroke-width:0.256776;stroke-linecap:round;stroke-linejoin:round;stroke-miterlimit:4;stroke-opacity:1"
     d="M 10.379549,11.695771 C 9.3433404,11.909515 9.2721064,11.558681 9.2721064,11.558681 10.366179,9.9352558 10.823535,7.8745606 10.428844,7.3702168 9.3520964,5.9944639 7.4881902,6.645107 7.4570845,6.6619987 l -0.010008,0.00179 C 7.2423561,6.6212937 7.0132456,6.5959763 6.7557487,6.591774 6.2868788,6.5840873 5.9312236,6.7146923 5.6613466,6.9193508 c 0,0 -3.3250246,-1.3697801 -3.1703819,1.7227568 0.032897,0.6579138 0.9429733,4.9780714 2.028477,3.6731804 0.3967509,-0.477152 0.7800915,-0.880597 0.7800915,-0.880597 0.190403,0.126482 0.4183396,0.191001 0.6572962,0.167826 l 0.01856,-0.01576 c -0.00577,0.05924 -0.00313,0.117192 0.00744,0.185789 -0.2796419,0.312436 -0.1974693,0.367293 -0.7564844,0.482363 -0.5656481,0.116574 -0.2333545,0.324116 -0.016398,0.378355 0.2630178,0.06578 0.8715135,0.158949 1.2826637,-0.416608 l -0.016398,0.06567 c 0.1095697,0.08775 0.1865098,0.57084 0.1736143,1.008749 -0.012896,0.43793 -0.021507,0.738584 0.064828,0.97342 0.086333,0.234838 0.172378,0.763221 0.9072538,0.605757 0.6140571,-0.131592 0.9322618,-0.4726 0.9765299,-1.04142 0.031415,-0.404394 0.1025043,-0.344614 0.106995,-0.70616 l 0.057021,-0.171163 c 0.065754,-0.54818 0.010444,-0.725029 0.3887574,-0.642774 l 0.091937,0.0081 c 0.278447,0.01267 0.642877,-0.04478 0.8567639,-0.144198 0.460569,-0.213744 0.733722,-0.570613 0.2796,-0.476844 z"
     id="path2464" />
  <path
     d="m 6.5370996,12.01 c -0.02853,1.020017 0.00717,2.04714 0.1069753,2.296768 0.099867,0.249628 0.31359,0.735164 1.0485262,0.57772 C 8.3065967,14.752855 8.530001,14.498119 8.6269436,13.93585 8.6983426,13.522165 8.83599,12.373277 8.8536442,12.137884"
     id="path2466"
     style="fill:#ffffff;fill-opacity:0;fill-rule:nonzero;stroke:#ffffff;stroke-width:0.256776;stroke-linecap:round;stroke-linejoin:round;stroke-miterlimit:4;stroke-opacity:1" />
  <path
     d="m 5.656214,6.8965675 c 0,0 -3.3272912,-1.3599122 -3.1726078,1.7326237 0.032898,0.6579149 0.9430359,4.9782158 2.0285187,3.6732638 0.3966686,-0.477214 0.7554127,-0.851491 0.7554127,-0.851491"
     id="path2468"
     style="fill:#ffffff;fill-opacity:0;fill-rule:nonzero;stroke:#ffffff;stroke-width:0.256776;stroke-linecap:round;stroke-linejoin:round;stroke-miterlimit:4;stroke-opacity:1" />
  <path
     d="m 7.4534382,6.6483617 c -0.1151728,0.036111 1.8508462,-0.7187048 2.9681548,0.7089805 0.39467,0.5043646 -0.06269,2.5650596 -1.1567366,4.1885248"
     id="path2470"
     style="fill:#ffffff;fill-opacity:0;fill-rule:nonzero;stroke:#ffffff;stroke-width:0.256776;stroke-linecap:round;stroke-linejoin:round;stroke-miterlimit:4;stroke-opacity:1" />
  <path
     style="fill:#ffffff;fill-opacity:0;fill-rule:nonzero;stroke:#ffffff;stroke-width:0.256776;stroke-linecap:round;stroke-linejoin:bevel;stroke-miterlimit:4;stroke-opacity:1"
     d="m 9.2648354,11.545867 c 0,0 0.0713,0.350938 1.1075236,0.13705 0.454019,-0.09377 0.180783,0.263141 -0.279682,0.476988 C 9.7147754,12.335291 8.867528,12.38024 8.8536848,12.137885 8.8180684,11.512578 9.2996084,11.702549 9.2648564,11.545867 9.2334414,11.404759 9.0180914,11.266267 8.8756443,10.920912 8.7512837,10.619476 7.1700678,8.3078559 9.3141514,8.6511715 9.3926984,8.6349182 8.7549507,6.6117557 6.7483914,6.5788577 4.7422863,6.5459604 4.8081025,9.0459238 4.8081025,9.0459238"
     id="path2472" />
  <path
     d="m 5.97551,11.759713 c -0.2796825,0.312416 -0.1974276,0.367273 -0.7564843,0.482384 -0.5656483,0.116595 -0.2333128,0.324096 -0.016417,0.378315 0.2630178,0.06582 0.8715136,0.158989 1.2826637,-0.416712 0.1252044,-0.175284 -7.238e-4,-0.454966 -0.172729,-0.526262 -0.083099,-0.03442 -0.1942146,-0.07756 -0.3370325,0.08227 z"
     id="path2474"
     style="fill:#ffffff;fill-opacity:0;fill-rule:nonzero;stroke:#ffffff;stroke-width:0.256776;stroke-linecap:round;stroke-linejoin:round;stroke-miterlimit:4;stroke-opacity:1" />
  <path
     d="m 5.9571967,11.754255 c -0.02818,-0.183689 0.060358,-0.402272 0.1552395,-0.657998 0.1425917,-0.38369 0.4715903,-0.767443 0.208408,-1.9845576 C 6.1246725,8.2047131 4.8089053,8.9229431 4.8080817,9.0459238 c -8.324e-4,0.1229391 0.059512,0.623348 -0.02198,1.2060732 -0.1063359,0.760399 0.4838475,1.403503 1.1634532,1.337706"
     id="path2476"
     style="fill:#ffffff;fill-opacity:0;fill-rule:nonzero;stroke:#ffffff;stroke-width:0.256776;stroke-linecap:round;stroke-linejoin:round;stroke-miterlimit:4;stroke-opacity:1" />
  <path
     style="fill:none;fill-opacity:1;fill-rule:nonzero;stroke:#ffffff;stroke-width:0.0856041;stroke-linecap:butt;stroke-linejoin:miter;stroke-miterlimit:4;stroke-dasharray:none;stroke-opacity:1"
     d="m 5.6441223,9.0274875 c -0.00594,0.042003 0.076899,0.1540856 0.1849028,0.1690619 0.1078191,0.015039 0.2001065,-0.072552 0.2059564,-0.1145145 0.00585,-0.042003 -0.076879,-0.088269 -0.1849237,-0.1033073 -0.1078815,-0.015059 -0.2002094,0.00686 -0.2059156,0.04876 z"
     id="path2478" />
  <path
     style="fill:none;fill-opacity:1;fill-rule:nonzero;stroke:#ffffff;stroke-width:0.0856041;stroke-linecap:butt;stroke-linejoin:miter;stroke-miterlimit:4;stroke-dasharray:none;stroke-opacity:1"
     d="M 8.928215,8.9418542 C 8.934065,8.9838572 8.851336,9.0959397 8.7433122,9.1109161 8.6354098,9.1259551 8.5431235,9.0383631 8.5372111,8.9964026 c -0.00571,-0.042004 0.077043,-0.088271 0.1849652,-0.1033084 0.1079222,-0.015039 0.2001886,0.00686 0.2060387,0.048781 z"
     id="path2480" />
  <path
     d="m 9.3141514,8.6511715 c 0.01778,0.3294714 -0.07097,0.5538858 -0.08215,0.904617 -0.01656,0.5098025 0.243056,1.0933105 -0.1481326,1.6775395"
     id="path2482"
     style="fill:#ffffff;fill-opacity:0;fill-rule:nonzero;stroke:#ffffff;stroke-width:0.256776;stroke-linecap:round;stroke-linejoin:round;stroke-miterlimit:4;stroke-opacity:1" />
  <path
     d=""
     style="fill-rule:nonzero;stroke:#ffffff;stroke-width:0.34153;stroke-linecap:round;stroke-linejoin:round;stroke-miterlimit:4;stroke-opacity:1"
     id="path2484" />
  <path
     id="path1-0"
     class="cls-1"
     d="m 12.996629,12.412253 h 0.740312 v 2.51038 h -0.75701 z m -1.931489,1.669875 h 0.645686 v 1.341468 c 0,1.046455 0.684649,1.903658 1.536285,1.909224 h 0.172554 c 0.857203,0 1.55855,-0.840504 1.569682,-1.881393 V 14.10996 h 0.645686 v 1.341467 c 0,1.480623 -1.001925,2.671801 -2.226501,2.660668 h -0.172554 c -1.213443,0 -2.187537,-1.219009 -2.176404,-2.694066 z m 0.834938,-4.2470504 a 1.964887,1.964887 0 0 1 1.402695,-0.62342 h 0.172554 c 1.213443,0 2.187537,1.2190094 2.176405,2.6996324 v 1.341467 H 14.994914 V 11.91129 c 0,-1.046455 -0.684649,-1.898092 -1.536285,-1.909225 h -0.161422 c -0.857203,0.01114 -1.558551,0.879468 -1.569683,1.903659 v 1.341467 h -0.651251 v -1.341467 a 2.938981,2.938981 0 0 1 0.823805,-2.0706464 z"
     style="fill:#ffffff;stroke-width:0.556625;stroke:#ffffff;stroke-opacity:0;fill-opacity:1" />
  <metadata
     id="metadata1">
    <rdf:RDF>
      <cc:Work
         rdf:about="">
        <dc:title>Icon-databases-132</dc:title>
      </cc:Work>
    </rdf:RDF>
  </metadata>
</svg>
